<svg width="45" height="44" viewBox="0 0 45 44" fill="none" xmlns="http://www.w3.org/2000/svg">
<path d="M44.9433 20.8187C44.9433 20.7799 44.9433 20.7218 44.9235 20.6831C44.7649 18.0687 44.1503 15.5898 43.1392 13.2852C40.899 25.7764 29.7177 35.2465 16.2763 35.2465C11.0227 35.2465 6.1061 33.794 1.94285 31.2764C2.16093 31.7412 2.39883 32.206 2.65655 32.6514C2.65655 32.6514 2.65655 32.6514 2.65655 32.6708C2.91428 33.0968 3.172 33.5229 3.44955 33.9489C3.46938 33.9683 3.46938 33.9877 3.4892 34.007C4.0443 34.8398 4.65888 35.6144 5.3131 36.3697C5.35275 36.4085 5.37258 36.4472 5.41223 36.4859C6.06645 37.2218 6.78015 37.8996 7.51368 38.5387C7.57315 38.5775 7.6128 38.6162 7.67228 38.6743C8.4058 39.294 9.1988 39.875 10.0116 40.3979C10.0711 40.4366 10.1504 40.4754 10.2297 40.5335C10.6064 40.7658 10.9831 40.9982 11.3796 41.2113C11.4192 41.2306 11.4589 41.25 11.4985 41.2887C11.9148 41.5211 12.351 41.7342 12.7871 41.9278C12.8664 41.9665 12.9457 42.0053 13.025 42.044C13.4017 42.2183 13.7784 42.3732 14.1749 42.5088C14.2542 42.5475 14.3533 42.5669 14.4326 42.6056C14.8886 42.7606 15.3446 42.9155 15.8005 43.0511C15.8798 43.0704 15.9591 43.0898 16.0583 43.1285C16.4548 43.2447 16.8513 43.3415 17.2478 43.4384C17.3667 43.4577 17.4658 43.4965 17.5848 43.5158C18.0606 43.6127 18.5364 43.7095 19.0122 43.7676C19.0717 43.7676 19.1311 43.787 19.2104 43.787C19.6466 43.8451 20.0629 43.8838 20.4991 43.9225C20.6378 43.9419 20.7568 43.9419 20.8956 43.9419C21.3912 43.9806 21.8868 44 22.4023 44C34.8722 44 44.9829 34.162 44.9829 22.0194C44.9631 21.5739 44.9631 21.206 44.9433 20.8187ZM39.4121 7.53345C38.0442 6.00352 36.4384 4.64789 34.6739 3.52465C30.8874 8.05634 25.0985 10.9613 18.6157 10.9613C13.8775 10.9613 9.516 9.41197 6.0268 6.79753C2.81515 10.1285 0.6344 14.3891 0 19.1532C4.22273 21.8063 9.23845 23.3363 14.6309 23.3363C25.713 23.3363 35.2489 16.8486 39.4121 7.53345ZM30.6891 1.52993C28.1119 0.542254 25.3165 0 22.3824 0C19.0518 0 15.8798 0.716549 13.0449 1.97535C15.6221 2.76937 18.358 3.21479 21.2128 3.21479C24.5434 3.19542 27.7352 2.59507 30.6891 1.52993Z" fill="white"/>
</svg>
